<svg width="19" height="12" viewBox="0 0 19 12" fill="none" xmlns="http://www.w3.org/2000/svg">
<path d="M17.4 3.99393C17.06 3.99393 16.805 4.24848 16.805 4.58787C16.805 4.75757 16.89 4.84242 16.975 5.01212C16.295 5.52121 14.935 5.94545 14.34 5.18181C13.83 4.58787 13.83 3.99393 13.83 3.56969H14C14.34 3.56969 14.595 3.31515 14.595 2.97575C14.595 2.63636 14.34 2.38181 14 2.38181C13.66 2.38181 13.405 2.63636 13.405 2.97575C13.405 3.14545 13.49 3.39999 13.66 3.48484C12.725 4.33333 11.28 4.58787 10.345 3.65454C9.66501 3.0606 9.41001 2.29696 9.32501 1.78787C9.75001 1.78787 10.005 1.44848 10.005 1.10909C10.005 0.769691 9.75001 0.430298 9.32501 0.430298C8.98501 0.430298 8.64501 0.684843 8.64501 1.10909C8.64501 1.44848 8.90001 1.70302 9.15501 1.78787C8.47501 3.65454 7.96501 4.07878 6.69001 4.16363C5.58501 4.33333 4.99001 3.65454 4.82001 3.48484C4.99001 3.39999 5.16001 3.2303 5.16001 2.97575C5.16001 2.63636 4.90501 2.38181 4.56501 2.38181C4.22501 2.38181 3.97001 2.63636 3.97001 2.8909C3.97001 3.2303 4.22501 3.48484 4.56501 3.48484H4.65001C4.56501 5.01212 3.80001 5.26666 3.29001 5.43636C2.78001 5.60605 1.59001 5.01212 1.59001 5.01212C1.76001 4.92727 1.84501 4.75757 1.84501 4.58787C1.84501 4.33333 1.59001 4.07878 1.33501 4.07878C1.08001 4.07878 0.825012 4.33333 0.825012 4.58787C0.825012 4.84242 1.08001 5.09696 1.33501 5.09696H1.50501C1.50501 5.09696 1.76001 5.60605 2.01501 6.28484C3.63001 6.36969 4.39501 5.94545 4.99001 4.75757C6.52001 5.52121 7.96501 5.18181 9.15501 3.73939C10.175 5.18181 12.215 5.26666 13.32 4.50302C13.66 5.77575 15.105 5.94545 15.105 5.94545C15.105 5.94545 14.68 7.04848 14.425 7.81212C14 7.47272 10.94 7.04848 9.58001 7.04848C8.22001 7.04848 3.12001 7.30303 3.29001 9.16969C3.46001 12.1394 12.555 11.1212 12.555 11.1212L12.385 10.697C12.385 10.697 9.41001 10.7818 8.64501 10.7818C7.88001 10.7818 4.31001 10.3576 4.14001 9.42424C3.97001 8.57575 7.28501 8.15151 8.81501 8.06666C10.345 7.98181 13.49 8.23636 14.935 8.74545C15.7 9.08484 15.87 8.4909 15.87 8.4909L17.485 4.92727H17.655C17.995 4.92727 18.25 4.67272 18.25 4.33333C17.995 4.24848 17.74 3.99393 17.4 3.99393Z" fill="white"/>
</svg>
