<svg width="25" height="27" viewBox="0 0 25 27" fill="none" xmlns="http://www.w3.org/2000/svg">
<path d="M13.26 1.18787C16.66 1.27272 20.06 1.86666 23.205 3.05454C23.035 7.97575 22.78 11.5394 22.44 14.2545C22.015 17.1394 21.42 19.1757 20.655 20.6182C19.89 21.8909 18.955 22.8242 17.51 23.6727C16.15 24.4364 14.365 25.0303 12.155 25.7939C9.945 25.0303 8.245 24.4364 6.885 23.6727C5.44 22.9091 4.505 21.9757 3.74 20.6182C2.89 19.1757 2.295 17.1394 1.955 14.2545C1.53 11.5394 1.275 7.97575 1.105 3.05454C4.59 1.86666 8.16 1.18787 11.9 1.18787H13.26ZM12.495 0.0848389H11.9C8.33 0.0848389 4.25 0.678778 0 2.2909C0.595 23.1636 2.975 23.7576 12.155 26.9818C21.42 23.8424 23.8 23.1636 24.395 2.2909C20.06 0.59393 15.98 0.0848389 12.495 0.0848389Z" fill="white"/>
</svg>
