<svg width="141" height="21" viewBox="0 0 141 21" fill="none" xmlns="http://www.w3.org/2000/svg">
<path d="M0.429969 6.14541H2.21497V8.60602C2.89497 7.67268 3.65997 6.99389 4.50997 6.4848C5.35997 6.06056 6.29497 5.80602 7.31497 5.80602C8.33497 5.80602 9.26997 6.06056 10.035 6.56965C10.8 7.07874 11.395 7.75753 11.82 8.69086C12.16 9.53935 12.415 10.8969 12.415 12.7636V19.806H10.63V13.2727C10.63 11.7454 10.545 10.6424 10.46 10.1333C10.29 9.19995 9.86497 8.52117 9.26997 8.09692C8.67497 7.67268 7.90997 7.41814 6.97497 7.41814C5.95497 7.41814 4.93497 7.75753 4.08497 8.43632C3.23497 9.11511 2.72497 9.96359 2.38497 11.0666C2.21497 11.7454 2.12997 13.0181 2.12997 14.8V19.806H0.344971V6.14541H0.429969ZM22.02 5.80602C24.145 5.80602 25.845 6.56965 27.205 8.09692C28.48 9.4545 29.075 11.1515 29.075 13.0181C29.075 14.8848 28.395 16.5818 27.12 18.0242C25.76 19.4666 24.06 20.1454 22.02 20.1454C19.895 20.1454 18.195 19.4666 16.92 18.0242C15.56 16.5818 14.965 14.9697 14.965 13.0181C14.965 11.1515 15.56 9.53935 16.835 8.09692C18.11 6.56965 19.895 5.80602 22.02 5.80602ZM22.02 7.50299C20.575 7.50299 19.3 8.01208 18.28 9.11511C17.26 10.2181 16.75 11.4909 16.75 13.0181C16.75 14.0363 17.005 14.8848 17.43 15.7333C17.94 16.5818 18.535 17.2606 19.385 17.6848C20.235 18.109 21.085 18.3636 22.105 18.3636C23.04 18.3636 23.975 18.109 24.825 17.6848C25.675 17.2606 26.27 16.5818 26.78 15.7333C27.29 14.8848 27.46 13.9515 27.46 13.0181C27.46 11.4909 26.95 10.2181 25.845 9.11511C24.655 8.01208 23.465 7.50299 22.02 7.50299ZM31.88 19.7212V0.884804H33.665V8.43632C34.43 7.50299 35.195 6.8242 36.13 6.39996C37.065 5.97571 38 5.72117 39.105 5.72117C41.06 5.72117 42.675 6.39996 44.035 7.84238C45.395 9.19996 46.075 10.8969 46.075 12.9333C46.075 14.8848 45.395 16.5818 44.035 17.9393C42.675 19.2969 40.975 20.0606 39.105 20.0606C38 20.0606 36.98 19.806 36.13 19.3818C35.195 18.8727 34.43 18.1939 33.75 17.2606V19.7212H31.88ZM38.85 18.3636C39.785 18.3636 40.72 18.109 41.57 17.6848C42.42 17.1757 43.015 16.4969 43.525 15.6484C44.035 14.8 44.29 13.8666 44.29 12.9333C44.29 12 44.035 11.0666 43.525 10.1333C43.015 9.2848 42.335 8.60602 41.57 8.09692C40.72 7.58783 39.87 7.33329 38.935 7.33329C38 7.33329 37.065 7.58783 36.215 8.09692C35.365 8.60602 34.685 9.19995 34.26 10.0484C33.835 10.8969 33.58 11.8303 33.58 12.8484C33.58 14.4606 34.09 15.7333 35.11 16.8363C36.045 17.8545 37.405 18.3636 38.85 18.3636ZM48.88 0.884804H50.665V19.7212H48.88V0.884804ZM65.455 15.2242L66.9 15.9878C66.39 16.9212 65.88 17.6848 65.2 18.2787C64.605 18.8727 63.84 19.2969 63.075 19.6363C62.31 19.9757 61.375 20.0606 60.355 20.0606C58.145 20.0606 56.36 19.2969 55.17 17.8545C53.895 16.4121 53.3 14.7151 53.3 12.9333C53.3 11.2363 53.81 9.70905 54.915 8.35147C56.275 6.6545 58.06 5.80602 60.355 5.80602C62.65 5.80602 64.52 6.6545 65.88 8.43632C66.9 9.70905 67.41 11.2363 67.41 13.103H55.17C55.17 14.7151 55.68 15.9878 56.7 17.006C57.72 18.0242 58.91 18.5333 60.355 18.5333C61.035 18.5333 61.715 18.4484 62.395 18.1939C63.075 17.9393 63.585 17.6 64.095 17.2606C64.435 16.7515 64.945 16.0727 65.455 15.2242ZM65.455 11.5757C65.2 10.6424 64.86 9.87874 64.435 9.36965C64.01 8.77571 63.415 8.35147 62.65 8.01208C61.885 7.67268 61.12 7.50299 60.355 7.50299C58.995 7.50299 57.89 7.92723 56.87 8.77571C56.19 9.36965 55.595 10.303 55.255 11.5757H65.455ZM83.39 8.94541L82.03 9.79389C80.84 8.18177 79.225 7.41814 77.1 7.41814C75.4 7.41814 74.04 7.92723 72.935 9.03026C71.83 10.1333 71.32 11.406 71.32 12.9333C71.32 13.9515 71.575 14.8848 72.085 15.7333C72.595 16.5818 73.275 17.2606 74.125 17.7697C74.975 18.2787 75.995 18.5333 77.1 18.5333C79.14 18.5333 80.755 17.7697 82.03 16.1575L83.39 17.0909C82.71 18.109 81.86 18.7878 80.755 19.3818C79.65 19.8909 78.375 20.2303 77.015 20.2303C74.89 20.2303 73.105 19.5515 71.66 18.1939C70.215 16.8363 69.535 15.1393 69.535 13.1878C69.535 11.8303 69.875 10.6424 70.555 9.53935C71.235 8.43632 72.17 7.50299 73.275 6.90905C74.465 6.31511 75.74 5.97571 77.185 5.97571C78.12 5.97571 78.97 6.14541 79.82 6.39996C80.67 6.6545 81.35 6.99389 81.945 7.50299C82.455 7.67268 82.965 8.26662 83.39 8.94541ZM85.855 0.884804H87.64V8.60602C88.32 7.67268 89.17 6.99389 90.02 6.4848C90.87 6.06056 91.805 5.80602 92.825 5.80602C93.845 5.80602 94.78 6.06056 95.545 6.56965C96.31 7.07874 96.905 7.75753 97.33 8.69086C97.67 9.53935 97.925 10.8969 97.925 12.7636V19.806H96.14V13.2727C96.14 11.7454 96.055 10.6424 95.97 10.1333C95.715 9.19995 95.375 8.52117 94.78 8.09692C94.185 7.67268 93.42 7.41814 92.57 7.41814C91.55 7.41814 90.53 7.75753 89.68 8.43632C88.83 9.11511 88.32 9.96359 87.98 11.0666C87.81 11.7454 87.725 12.9333 87.725 14.8V19.806H85.94V0.884804H85.855ZM114.585 6.14541V19.7212H112.885V17.3454C112.12 18.2787 111.355 18.8727 110.42 19.3818C109.485 19.806 108.465 20.0606 107.445 20.0606C105.49 20.0606 103.875 19.3818 102.515 17.9393C101.155 16.5818 100.475 14.8848 100.475 12.8484C100.475 10.8969 101.155 9.19996 102.515 7.84238C103.875 6.4848 105.575 5.72117 107.53 5.72117C108.635 5.72117 109.655 5.97571 110.59 6.39996C111.525 6.90905 112.29 7.58783 112.97 8.52117V6.14541H114.585ZM107.615 7.41814C106.68 7.41814 105.745 7.67268 104.895 8.09692C104.045 8.60602 103.45 9.2848 102.94 10.1333C102.43 10.9818 102.175 11.9151 102.175 12.8484C102.175 13.7818 102.43 14.7151 102.94 15.5636C103.45 16.4121 104.13 17.0909 104.895 17.6C105.745 18.109 106.595 18.3636 107.53 18.3636C108.465 18.3636 109.4 18.109 110.25 17.6C111.1 17.0909 111.78 16.4969 112.205 15.6484C112.63 14.8 112.885 13.8666 112.885 12.8484C112.885 11.2363 112.375 9.96359 111.355 8.86056C110.42 8.01208 109.145 7.41814 107.615 7.41814ZM119.515 0.54541C119.94 0.54541 120.28 0.715107 120.535 0.969653C120.79 1.2242 120.96 1.56359 120.96 1.98783C120.96 2.41208 120.79 2.75147 120.535 3.00602C120.28 3.26056 119.94 3.43026 119.515 3.43026C119.09 3.43026 118.75 3.26056 118.495 3.00602C118.24 2.75147 118.07 2.41208 118.07 1.98783C118.07 1.56359 118.24 1.2242 118.495 0.969653C118.75 0.630259 119.09 0.54541 119.515 0.54541ZM118.58 6.14541H120.365V19.7212H118.58V6.14541ZM124.02 6.14541H125.805V8.09692C126.315 7.33329 126.91 6.73935 127.505 6.31511C128.1 5.89086 128.695 5.72117 129.375 5.72117C129.885 5.72117 130.395 5.89086 130.905 6.14541L129.97 7.58783C129.63 7.41814 129.29 7.33329 129.035 7.33329C128.44 7.33329 127.845 7.58783 127.335 8.01208C126.825 8.52117 126.4 9.19995 126.06 10.2181C125.805 10.9818 125.72 12.5939 125.72 14.8848V19.4666H123.935V6.14541H124.02ZM140 7.58783L138.895 8.77571C137.96 7.84238 137.025 7.41814 136.175 7.41814C135.58 7.41814 135.155 7.58783 134.73 8.01208C134.305 8.35147 134.135 8.86056 134.135 9.2848C134.135 9.70905 134.305 10.1333 134.645 10.5575C134.985 10.9818 135.665 11.406 136.77 12C138.045 12.6787 138.98 13.3575 139.405 13.9515C139.83 14.5454 140.085 15.309 140.085 16.0727C140.085 17.1757 139.66 18.109 138.895 18.8727C138.13 19.6363 137.11 20.0606 135.92 20.0606C135.155 20.0606 134.39 19.8909 133.71 19.5515C133.03 19.2121 132.435 18.703 131.925 18.109L133.03 16.8363C133.965 17.8545 134.9 18.3636 135.92 18.3636C136.6 18.3636 137.195 18.109 137.705 17.6848C138.215 17.2606 138.47 16.6666 138.47 16.0727C138.47 15.5636 138.3 15.1393 137.96 14.7151C137.62 14.2909 136.855 13.8666 135.75 13.2727C134.56 12.6787 133.71 12 133.2 11.406C132.775 10.8121 132.52 10.0484 132.52 9.2848C132.52 8.26662 132.86 7.41814 133.54 6.73935C134.22 6.06056 135.155 5.72117 136.26 5.72117C137.45 5.80602 138.725 6.39996 140 7.58783Z" fill="white"/>
</svg>
